<svg fill="none" height="30" viewBox="0 0 24 24" width="30" xmlns="http://www.w3.org/2000/svg"><g stroke="#292d32" stroke-linecap="round" stroke-linejoin="round" stroke-width="1.5"><path d="m6 13.98 3.89001.02c.72999 0 1.44999.17 2.10999.5s1.38.5 2.12.5h3.88v4c0 1.65-1.35 3-3 3h-6c-1.65 0-3-1.35-3-3v-1.01"/><path d="m18 10.83v4.17h-3.88c-.74 0-1.46-.17-2.12-.5s-1.38-.5-2.10999-.5l-3.89001-.02v-3.15c0-.46.26003-1.09.59003-1.42l2.11999-2.12001c.18-.18.28998-.43999.28998-.69999v-1.59h6v1.59c0 .26.11.51999.29.69999l2.12 2.12001c.33.33.59.96.59 1.42z"/><path d="m18 16v-1"/><path d="m14.5 5h-5c-.83 0-1.5-.68-1.5-1.5s.67-1.5 1.5-1.5h5c.83 0 1.5.68 1.5 1.5s-.67 1.5-1.5 1.5z"/></g></svg>